<?xml version="1.0" standalone="no"?>
<!DOCTYPE svg PUBLIC "-//W3C//DTD SVG 20010904//EN"
 "http://www.w3.org/TR/2001/REC-SVG-20010904/DTD/svg10.dtd">
<svg version="1.0" xmlns="http://www.w3.org/2000/svg"
 width="70.000000pt" height="70.000000pt" viewBox="0 0 70.000000 70.000000"
 preserveAspectRatio="xMidYMid meet">
<metadata>
Created by potrace 1.14, written by Peter Selinger 2001-2017
</metadata>
<g transform="translate(0.000000,70.000000) scale(0.100000,-0.100000)"
fill="#000000" stroke="none">
<path d="M2 617 c2 -25 8 -42 16 -42 6 0 13 -4 14 -10 0 -5 8 -15 17 -22 13
-10 20 -7 39 15 19 22 21 23 13 5 -8 -15 -8 -24 -1 -28 6 -4 9 -3 8 2 -3 9 5
13 25 13 8 0 7 -4 -3 -10 -13 -8 -12 -10 3 -10 10 0 17 -8 17 -19 0 -11 8 -22
18 -25 9 -3 5 -4 -10 -2 -15 2 -33 -1 -40 -5 -10 -7 -10 -9 0 -9 6 0 12 -4 12
-10 0 -5 -3 -9 -7 -9 -23 4 -41 -3 -39 -13 6 -26 18 -48 27 -48 6 0 5 10 -1
23 -10 20 -10 20 3 5 15 -19 29 -14 20 8 -3 8 0 14 6 14 6 0 8 6 5 14 -4 10 1
14 15 13 12 -1 21 -5 21 -10 0 -5 -6 -7 -14 -4 -14 6 -16 -9 -3 -29 8 -13 -16
-38 -26 -27 -4 3 -7 -1 -7 -11 0 -11 -4 -15 -12 -10 -8 5 -7 0 2 -11 11 -13
11 -17 2 -11 -11 7 -13 1 -9 -28 3 -20 1 -36 -5 -36 -6 0 -8 7 -5 15 4 8 3 17
-2 19 -11 7 -7 -96 5 -119 6 -11 10 -35 9 -52 -2 -22 1 -31 9 -26 6 4 5 -1 -3
-10 -9 -11 -10 -17 -2 -17 6 0 11 -7 11 -16 0 -13 3 -14 14 -5 11 9 15 9 19
-1 5 -11 11 12 9 32 -1 9 76 6 85 -3 4 -5 0 -13 -10 -18 -13 -8 -15 -14 -7
-30 6 -10 18 -19 26 -19 8 0 12 4 9 10 -4 6 1 7 11 3 12 -4 15 -2 12 8 -3 8
-10 13 -15 12 -5 -1 -10 3 -10 10 0 7 -4 20 -8 30 -5 13 -2 17 11 17 13 0 15
-3 7 -8 -10 -6 -10 -12 2 -28 10 -12 14 -14 12 -4 -2 8 -2 12 0 7 3 -4 9 -5
14 -2 5 4 6 -2 2 -11 -4 -12 -3 -15 5 -10 16 10 15 -6 0 -23 -10 -11 -10 -13
0 -7 6 4 12 3 12 -3 0 -5 -5 -11 -12 -13 -6 -2 -8 -10 -4 -17 5 -8 31 -11 79
-10 68 2 72 3 73 25 1 13 -2 21 -7 18 -5 -3 -6 2 -3 11 5 13 9 13 22 3 10 -8
13 -8 9 -2 -4 7 0 14 8 18 8 3 17 0 21 -6 5 -7 2 -8 -6 -3 -9 6 -11 4 -5 -5 6
-10 10 -10 19 3 9 12 16 13 31 4 19 -10 19 -9 5 8 -14 17 -14 18 7 7 26 -14
36 -15 28 -3 -3 5 4 12 15 16 11 3 20 11 20 16 0 6 -5 7 -12 3 -7 -4 -8 -3 -4
4 6 11 -5 16 -26 13 -4 0 -5 6 -2 14 4 8 11 15 17 15 6 0 7 -3 4 -7 -4 -3 2
-13 14 -21 18 -12 22 -12 34 4 8 11 15 22 15 27 0 4 7 7 15 7 11 0 15 11 15
40 0 45 -7 49 -38 20 -26 -25 -29 -25 -43 1 -8 16 -8 20 1 14 9 -6 9 -3 1 13
-12 23 -4 55 12 45 5 -3 7 -1 3 5 -3 5 -3 12 1 15 5 2 3 2 -4 1 -7 -2 -15 2
-19 8 -5 7 -2 8 6 3 10 -6 12 -4 7 8 -4 10 -2 14 7 11 7 -3 13 2 13 10 0 8 -4
13 -9 10 -4 -3 -8 0 -8 5 0 6 4 11 9 11 6 0 9 9 8 20 -1 11 -5 20 -9 20 -4 0
-8 5 -8 11 0 6 8 8 18 5 10 -4 7 2 -8 14 -14 11 -18 18 -9 15 10 -4 16 0 16 9
0 8 -4 13 -8 11 -4 -3 -10 2 -13 11 -3 8 -2 13 3 10 5 -3 11 1 15 9 3 8 0 17
-6 21 -7 4 -8 3 -4 -4 4 -7 2 -12 -5 -12 -6 0 -9 8 -6 20 3 11 1 18 -4 14 -5
-3 -9 0 -9 6 0 6 -4 9 -9 6 -5 -4 -12 0 -14 6 -3 8 -6 6 -6 -4 -1 -10 -6 -18
-12 -18 -5 0 -7 5 -3 12 4 7 3 8 -5 4 -9 -6 -9 -11 -1 -21 8 -10 8 -15 -1 -21
-7 -4 -9 -3 -6 3 4 6 0 13 -8 17 -9 3 -15 0 -15 -9 0 -18 -16 -20 -26 -3 -5 7
-3 8 7 3 12 -7 12 -6 1 7 -8 10 -25 14 -47 12 -19 -1 -38 2 -41 8 -5 7 -2 8 7
3 11 -7 12 -6 2 7 -7 8 -9 19 -5 24 4 4 -1 2 -11 -5 -19 -15 -23 -26 -5 -15 7
4 8 3 4 -5 -9 -14 -26 -5 -26 15 0 8 -5 12 -10 9 -6 -4 -8 -10 -5 -15 6 -9
-34 -5 -43 5 -3 2 -11 0 -18 -6 -8 -7 -14 -6 -20 2 -4 7 -3 9 3 6 5 -3 10 1
10 9 0 10 -7 8 -24 -8 -22 -21 -24 -21 -17 -3 4 11 4 17 -1 13 -4 -4 -15 -2
-24 4 -13 10 -14 10 -3 -2 17 -19 15 -26 -7 -26 -11 0 -18 3 -15 7 2 4 -3 10
-12 13 -8 3 -12 2 -9 -4 3 -6 3 -10 -2 -11 -4 0 -16 -2 -25 -4 -10 -2 -18 1
-18 6 0 6 -5 7 -10 4 -6 -4 -7 -11 -4 -17 4 -6 3 -8 -3 -5 -6 4 -9 18 -8 32 2
14 -1 27 -6 31 -5 3 -7 9 -4 14 3 4 -4 6 -16 3 -11 -3 -18 -11 -15 -19 3 -8 0
-11 -10 -7 -8 3 -14 -1 -14 -8 0 -7 -6 -5 -14 6 -8 11 -13 22 -11 25 2 3 -5 7
-16 7 -18 2 -20 -4 -17 -40z m486 -75 c-9 -10 -13 -11 -19 0 -7 10 -9 10 -9
-1 0 -8 -3 -12 -6 -8 -10 10 4 23 25 23 15 0 17 -3 9 -14z m16 -20 c3 -5 -1
-9 -9 -9 -8 0 -12 4 -9 9 3 4 7 8 9 8 2 0 6 -4 9 -8z m101 -251 c3 -5 2 -12
-3 -15 -5 -3 -9 1 -9 9 0 17 3 19 12 6z"/>
<path d="M623 654 c3 -4 2 -15 -3 -24 -8 -14 -6 -18 6 -16 22 3 36 29 21 38
-15 9 -33 11 -24 2z"/>
<path d="M340 611 c0 -6 4 -13 10 -16 6 -3 7 1 4 9 -7 18 -14 21 -14 7z"/>
<path d="M143 415 c0 -8 4 -12 9 -9 5 3 6 10 3 15 -9 13 -12 11 -12 -6z"/>
<path d="M630 279 c0 -5 5 -7 10 -4 6 3 10 8 10 11 0 2 -4 4 -10 4 -5 0 -10
-5 -10 -11z"/>
<path d="M89 197 c6 -8 7 -18 3 -22 -4 -5 -1 -5 6 -1 10 6 10 11 1 22 -6 8
-14 14 -16 14 -3 0 0 -6 6 -13z"/>
<path d="M210 98 c0 -11 12 -10 30 2 12 7 10 9 -8 7 -12 0 -22 -5 -22 -9z"/>
<path d="M610 79 c0 -5 5 -7 10 -4 6 3 10 8 10 11 0 2 -4 4 -10 4 -5 0 -10 -5
-10 -11z"/>
</g>
</svg>
